<svg xmlns="http://www.w3.org/2000/svg" viewBox="0 0 320 200" role="img" aria-label="Graphium choredon, the Blue Triangle butterfly">
  <title>Graphium choredon</title>
  <desc>A stylised Blue Triangle butterfly. Forewings with slightly hooked outer tips, hindwings with gently scalloped lower edges. Wing borders, body, head, and antennae are drawn as outlines using currentColor so the graphic adapts to the parent's text colour — Vellum on Wingbase (primary), or Ink on Vellum (fallback). Twelve inverted cerulean triangles on the forewings, eight on the hindwings, with two small inverted Underspot-red accents on the hindwings.</desc>

  <g stroke="currentColor" stroke-width="1.25" fill="none" stroke-linecap="round" stroke-linejoin="round">

    <path d="
      M 160 70
      L 78 60
      Q 46 60 40 80
      Q 42 96 70 108
      L 124 112
      Q 150 112 160 108
      Z
    "/>
    <path d="
      M 160 70
      L 242 60
      Q 274 60 280 80
      Q 278 96 250 108
      L 196 112
      Q 170 112 160 108
      Z
    "/>

    <path d="
      M 160 108
      L 128 112
      Q 96 114 82 128
      Q 72 144 82 156
      Q 92 160 108 156
      Q 120 160 132 154
      Q 146 158 154 150
      L 160 146
      Z
    "/>
    <path d="
      M 160 108
      L 192 112
      Q 224 114 238 128
      Q 248 144 238 156
      Q 228 160 212 156
      Q 200 160 188 154
      Q 174 158 166 150
      L 160 146
      Z
    "/>

  </g>

  <g fill="#1E8FB8">
    <polygon points="146,78 154,78 150,102"/>
    <polygon points="128,78 144,78 136,102"/>
    <polygon points="108,78 124,78 116,101"/>
    <polygon points="90,79 104,79 97,100"/>
    <polygon points="74,81 86,81 80,99"/>
    <polygon points="60,83 70,83 65,97"/>
  </g>

  <g fill="#1E8FB8">
    <polygon points="166,78 174,78 170,102"/>
    <polygon points="176,78 192,78 184,102"/>
    <polygon points="196,78 212,78 204,101"/>
    <polygon points="216,79 230,79 223,100"/>
    <polygon points="234,81 246,81 240,99"/>
    <polygon points="250,83 260,83 255,97"/>
  </g>

  <g fill="#1E8FB8">
    <polygon points="146,118 154,118 150,140"/>
    <polygon points="128,118 142,118 135,139"/>
    <polygon points="110,120 124,120 117,138"/>
    <polygon points="94,122 106,122 100,136"/>
  </g>

  <g fill="#1E8FB8">
    <polygon points="166,118 174,118 170,140"/>
    <polygon points="178,118 192,118 185,139"/>
    <polygon points="196,120 210,120 203,138"/>
    <polygon points="214,122 226,122 220,136"/>
  </g>

  <g fill="#B8243C">
    <polygon points="108,152 116,152 112,144"/>
    <polygon points="204,152 212,152 208,144"/>
  </g>

  <path d="
    M 160 62
    Q 165 68 165 108
    Q 164 138 161 152
    L 160 160
    L 159 152
    Q 156 138 155 108
    Q 155 68 160 62
    Z
  " fill="currentColor"/>

  <circle cx="160" cy="58" r="4.5" fill="currentColor"/>

  <g stroke="currentColor" stroke-width="1.25" fill="none" stroke-linecap="round">
    <path d="M 158 55 Q 148 40 142 26"/>
    <path d="M 162 55 Q 172 40 178 26"/>
  </g>
  <circle cx="142" cy="26" r="1.75" fill="none" stroke="currentColor" stroke-width="1.25"/>
  <circle cx="178" cy="26" r="1.75" fill="none" stroke="currentColor" stroke-width="1.25"/>

</svg>
